<?xml version="1.0" encoding="utf-8"?>
<!-- Generator: Adobe Illustrator 19.0.0, SVG Export Plug-In . SVG Version: 6.00 Build 0)  -->
<svg version="1.1" id="Layer_1" xmlns="http://www.w3.org/2000/svg" xmlns:xlink="http://www.w3.org/1999/xlink" x="0px" y="0px"
	 viewBox="0 0 92.0449524 15.9928112" style="enable-background:new 0 0 92.0449524 15.9928112;" xml:space="preserve">
<style type="text/css">
	.st0{fill:#404041;}
</style>
<g>
	<polygon class="st0" points="41.2260132,1.3015757 27.9801712,1.3015757 27.4839916,0 41.7221947,0 	"/>
	<path class="st0" d="M-0.0000545,0h1.4022472v14.6408968h6.3496633v1.3519144h-7.7519102V0z"/>
	<path class="st0" d="M21.4866867,1.3015757h-6.5941572V7.198205h5.8462915v1.3015709h-5.8462915v6.1483145h6.8458414V16H13.490283
		V0h7.9964037V1.3015757z"/>
	<path class="st0" d="M48.8700562,2.2004521v13.7923594h-1.4022484V0h1.4525871l10.1968536,13.7923584V0h1.4022446v15.9928112
		h-1.4022446L48.8700562,2.2004521z"/>
	<path class="st0" d="M71.9100571,1.3015757v14.6912355h-1.4022446V1.3015757h-4.2498856V0.0000044h9.8948288v1.3015712H71.9100571z
		"/>
	<path class="st0" d="M85.450737,9.2979813l-5.0984268-9.2979765h1.5460663l4.3002243,7.9460673l4.3002319-7.9460673h1.5460663
		l-5.1487656,9.2979765v6.6948299h-1.4525757L85.450737,9.2979813L85.450737,9.2979813z"/>
	<polygon class="st0" points="40.2264633,15.9928112 35.0776978,2.6462955 36.4799461,2.6462955 41.7221947,15.9928112 	"/>
	<polygon class="st0" points="28.9293823,15.9928112 34.1284866,2.6462955 32.6830902,2.6462955 27.4839916,15.9928112 	"/>
</g>
</svg>
